<?xml version="1.0" encoding="utf-8"?>
<!-- Generator: Adobe Illustrator 23.0.5, SVG Export Plug-In . SVG Version: 6.00 Build 0)  -->
<svg version="1.1" id="Capa_1" xmlns="http://www.w3.org/2000/svg" xmlns:xlink="http://www.w3.org/1999/xlink" x="0px" y="0px"
	 viewBox="0 0 24 32" style="enable-background:new 0 0 24 32;" xml:space="preserve">
<g>
	<path d="M20.4,25.3c-0.1-0.5-0.3-1.2-0.8-1.5c-0.1-0.1-0.4-0.1-0.7-0.1c-1.9,0.1-3.5,1.1-5.1,1.9c0,0,0,0-0.1-0.1s-0.3-0.1-0.4-0.1
		c-0.9,0-2,0-2.9,0.3c-0.1,0-0.1,0-0.1,0.1c-1.6-0.8-3.3-1.7-5.2-2c-0.3,0-0.4,0-0.7,0.1c-0.5,0.1-0.8,0.9-0.8,1.5
		c-0.1,1.1-0.1,2.1-0.1,3.1c0.1,1.1,0.3,2.1,0.8,2.9l0,0c0,0,0,0,0,0.1c0.1,0.1,0.1,0.3,0.4,0.4C4.8,32,5.1,32,5.3,32
		c0.8-0.1,1.7-0.5,2.5-1.1s1.6-0.9,2.4-1.3c0.3,0.1,0.7,0.1,0.8,0.1c0.4,0,0.7,0,0.9,0s0.7,0,0.9,0c0.1,0,0.4,0,0.4-0.1
		c0.8,0.4,1.5,0.8,2.3,1.2c0.8,0.4,1.6,0.9,2.5,1.1c0.1,0,0.1,0,0.3,0c0.1,0,0.4,0,0.5-0.1s0.3-0.3,0.4-0.4c0.7-0.8,0.8-2,0.8-3.1
		C20.4,27.5,20.4,26.4,20.4,25.3z"/>
	<ellipse cx="12" cy="11.1" rx="12" ry="11.1"/>
</g>
</svg>
